<svg width="158" height="183" viewBox="0 0 158 183" fill="none" xmlns="http://www.w3.org/2000/svg">
<path d="M120.865 58.0806C121.026 59.823 121.134 61.5765 121.134 63.36C121.134 95.3853 95.1444 121.441 63.2 121.441C61.4209 121.441 59.6718 121.333 57.9338 121.171V142.56H142.2V58.0806H120.865Z" fill="black"/>
<path d="M47.4 47.52H107.843C101.332 29.0759 83.8301 15.84 63.2 15.84C37.021 15.84 15.8 37.1147 15.8 63.36C15.8 84.0423 29.0025 101.588 47.4 108.116V47.52Z" fill="black"/>
<path d="M57.9338 110.566C59.6624 110.756 61.4209 110.875 63.2 110.875C89.379 110.875 110.6 89.6053 110.6 63.36C110.6 61.5765 110.481 59.8182 110.292 58.0806H57.9338V110.566Z" fill="#B70111"/>
</svg>
